# 3ds Max Wavefront OBJ Exporter v0.97b - (c)2007 guruware
# File Created: 09.11.2015 18:27:15

mtllib 3d-model.mtl

#
# object Group_002
#

v  225.9843 49.7884 -3698.0315
v  225.9843 49.7884 3698.0315
v  330.7086 49.7884 3698.0315
v  330.7086 49.7884 -3698.0315
v  -330.7086 49.7884 -3698.0315
v  -330.7086 49.7884 3698.0315
v  -225.9842 49.7884 3698.0315
v  -225.9842 49.7884 -3698.0315
v  -330.7086 0.0000 3698.0315
v  -330.7086 0.0000 -3698.0315
v  -196.5220 30.1033 -3698.0315
v  -196.5220 30.1033 3698.0315
v  -167.0597 49.7884 3698.0315
v  -167.0597 49.7884 -3698.0315
v  330.7086 0.0000 -3698.0315
v  196.5220 30.1033 -3698.0315
v  167.0598 49.7884 -3698.0315
v  -124.4094 49.7884 -3698.0315
v  130.7087 49.7884 -3698.0315
v  330.7086 0.0000 3698.0315
v  196.5220 30.1033 3698.0315
v  167.0598 49.7884 3698.0315
v  130.7087 49.7884 3698.0315
v  -118.1102 49.7884 3698.0315
v  -124.4094 49.7884 3698.0315
# 25 vertices

vn 0.0000 1.0000 0.0000
vn -1.0000 0.0000 -0.0000
vn -0.5556 0.8315 0.0000
vn 0.0000 0.0000 -1.0000
vn 1.0000 -0.0000 0.0000
vn -0.0000 -0.0000 1.0000
vn 0.5556 0.8315 0.0000
vn 0.0000 -1.0000 -0.0000
vn -0.0000 1.0000 0.0000
# 9 vertex normals

vt 23.1955 308.1693 0.0000
vt 23.1955 0.0000 0.0000
vt 27.5591 0.0000 0.0000
vt 27.5591 308.1693 0.0000
vt 0.0000 308.1693 0.0000
vt 0.0000 0.0000 0.0000
vt 4.3635 0.0000 0.0000
vt 4.3635 308.1693 0.0000
vt 0.0000 2.7660 0.0000
vt -410.8924 2.7660 0.0000
vt -410.8924 0.0000 0.0000
vt -410.8924 7.1277 0.0000
vt 0.0000 7.1277 0.0000
vt 0.0000 9.0962 0.0000
vt -410.8924 9.0962 0.0000
vt -7.4548 1.6724 0.0000
vt -36.7454 -0.0000 0.0000
vt -5.8180 2.7660 0.0000
vt -29.2906 1.6724 0.0000
vt -36.7454 2.7660 0.0000
vt -30.9274 2.7660 0.0000
vt -9.0916 2.7660 0.0000
vt -27.6538 2.7660 0.0000
vt -11.4611 2.7660 0.0000
vt -25.6343 2.7660 0.0000
vt 410.8924 2.7660 0.0000
vt 410.8924 0.0000 0.0000
vt 29.2906 1.6724 0.0000
vt 36.7454 -0.0000 0.0000
vt 36.7454 2.7660 0.0000
vt 30.9274 2.7660 0.0000
vt 7.4548 1.6724 0.0000
vt 5.8180 2.7660 0.0000
vt 27.6538 2.7660 0.0000
vt 9.0916 2.7660 0.0000
vt 25.6343 2.7660 0.0000
vt 11.8110 2.7660 0.0000
vt 11.4611 2.7660 0.0000
vt 410.8924 -21.4570 0.0000
vt 0.0000 -21.4570 0.0000
vt 0.0000 -23.4255 0.0000
vt 410.8924 -23.4255 0.0000
vt -410.8924 25.2837 0.0000
vt 0.0000 25.2837 0.0000
vt 0.0000 27.2523 0.0000
vt -410.8924 27.2523 0.0000
vt -0.0000 410.8924 0.0000
vt -36.7454 410.8924 0.0000
vt 410.8924 -3.3009 0.0000
vt 0.0000 -3.3009 0.0000
vt 0.0000 -5.2694 0.0000
vt 410.8924 -5.2694 0.0000
vt 9.0916 410.8924 0.0000
vt 9.0916 0.0000 0.0000
vt 11.4611 0.0000 0.0000
vt 11.4611 410.8924 0.0000
vt 25.6343 410.8924 0.0000
vt 25.6343 0.0000 0.0000
vt 27.6538 0.0000 0.0000
vt 27.6538 410.8924 0.0000
vt 17.1916 616.3386 0.0000
vt 17.1916 0.0000 0.0000
vt 17.7165 0.0000 0.0000
vt 38.4514 616.3386 0.0000
vt 38.4514 0.0000 0.0000
# 65 texture coords

g Group_002
usemtl Vegetation_Juniper2
s off
f 1/1/1 2/2/1 3/3/1 4/4/1 
f 5/5/1 6/6/1 7/7/1 8/8/1 
usemtl Groundcover_Sand_Smooth
f 9/6/2 6/9/2 5/10/2 10/11/2 
f 11/12/3 12/13/3 13/14/3 14/15/3 
f 11/16/4 15/17/4 10/6/4 5/9/4 
f 11/16/4 5/9/4 8/18/4 
f 15/17/4 11/16/4 16/19/4 4/20/4 
f 4/20/4 16/19/4 1/21/4 
f 16/19/4 11/16/4 14/22/4 17/23/4 
f 17/23/4 14/22/4 18/24/4 19/25/4 
f 4/26/5 3/9/5 20/6/5 15/27/5 
f 21/28/6 9/6/6 20/29/6 3/30/6 
f 21/28/6 3/30/6 2/31/6 
f 9/6/6 21/28/6 12/32/6 6/9/6 
f 6/9/6 12/32/6 7/33/6 
f 12/32/6 21/28/6 22/34/6 13/35/6 
f 13/35/6 22/34/6 23/36/6 24/37/6 
f 13/35/6 24/37/6 25/38/6 
f 17/39/7 22/40/7 21/41/7 16/42/7 
f 16/43/3 21/44/3 2/45/3 1/46/3 
f 20/17/8 9/6/8 10/47/8 15/48/8 
f 8/49/7 7/50/7 12/51/7 11/52/7 
f 14/53/9 13/54/9 25/55/9 18/56/9 
f 19/57/9 23/58/9 22/59/9 17/60/9 
usemtl Asphalt_New
f 18/61/1 25/62/1 24/63/1 19/64/1 
f 19/64/1 24/63/1 23/65/1 
# 20 polygons - 6 triangles

#
# object Group_001
#

v  0.0000 49.8671 3492.9019
v  0.0000 49.8671 3698.0315
v  6.2992 49.8671 3698.0315
v  6.2992 49.8671 3492.9019
v  0.0000 49.8671 2262.1931
v  0.0000 49.8671 2467.3228
v  6.2992 49.8671 2467.3228
v  6.2992 49.8671 2262.1931
v  124.4095 49.8671 -3698.0315
v  124.4095 49.8671 3698.0315
v  130.7087 49.8671 3698.0315
v  130.7087 49.8671 -3698.0315
v  0.0000 49.8671 2672.4292
v  0.0000 49.8671 2877.5591
v  6.2992 49.8671 2877.5591
v  6.2992 49.8671 2672.4292
v  0.0000 49.8671 211.0120
v  0.0000 49.8671 416.1418
v  6.2992 49.8671 416.1418
v  6.2992 49.8671 211.0120
v  0.0000 49.8671 -1429.9329
v  0.0000 49.8671 -1224.8030
v  6.2992 49.8671 -1224.8030
v  6.2992 49.8671 -1429.9329
v  0.0000 49.8671 1441.7207
v  0.0000 49.8671 1646.8503
v  6.2992 49.8671 1646.8503
v  6.2992 49.8671 1441.7207
v  0.0000 49.8671 1851.9569
v  0.0000 49.8671 2057.0867
v  6.2992 49.8671 2057.0867
v  6.2992 49.8671 1851.9569
v  0.0000 49.8671 -2250.4055
v  0.0000 49.8671 -2045.2756
v  6.2992 49.8671 -2045.2756
v  6.2992 49.8671 -2250.4055
v  0.0000 49.8671 -609.4602
v  0.0000 49.8671 -404.3308
v  6.2992 49.8671 -404.3308
v  6.2992 49.8671 -609.4602
v  0.0000 49.8671 -3481.1140
v  0.0000 49.8671 -3275.9841
v  6.2992 49.8671 -3275.9841
v  6.2992 49.8671 -3481.1140
v  0.0000 49.8671 -2660.6414
v  0.0000 49.8671 -2455.5120
v  6.2992 49.8671 -2455.5120
v  6.2992 49.8671 -2660.6414
v  0.0000 49.8671 -1840.1692
v  0.0000 49.8671 -1635.0393
v  6.2992 49.8671 -1635.0393
v  6.2992 49.8671 -1840.1692
v  0.0000 49.8671 3082.6655
v  0.0000 49.8671 3287.7954
v  6.2992 49.8671 3287.7954
v  6.2992 49.8671 3082.6655
v  0.0000 49.8671 -3070.8777
v  0.0000 49.8671 -2865.7478
v  6.2992 49.8671 -2865.7478
v  6.2992 49.8671 -3070.8777
v  0.0000 49.8671 -1019.6965
v  0.0000 49.8671 -814.5671
v  6.2992 49.8671 -814.5671
v  6.2992 49.8671 -1019.6965
v  0.0000 49.8671 -3698.0315
v  0.0000 49.8671 -3686.2205
v  6.2992 49.8671 -3686.2205
v  6.2992 49.8671 -3698.0315
v  0.0000 49.8671 621.2483
v  0.0000 49.8671 826.3779
v  6.2992 49.8671 826.3779
v  6.2992 49.8671 621.2483
v  -124.4094 49.8671 -3698.0315
v  -124.4094 49.8671 3698.0315
v  -118.1102 49.8671 3698.0315
v  -118.1102 49.8671 -3698.0315
v  0.0000 49.8671 1031.4844
v  0.0000 49.8671 1236.6143
v  6.2992 49.8671 1236.6143
v  6.2992 49.8671 1031.4844
v  0.0000 49.8671 -199.2241
v  0.0000 49.8671 5.9055
v  6.2992 49.8671 5.9055
v  6.2992 49.8671 -199.2241
# 84 vertices

vn 0.0000 1.0000 0.0000
# 1 vertex normals

vt 0.0000 0.0000 0.0000
# 1 texture coords

g Group_001
usemtl skp_front_default
s off
f 26/66/10 27/66/10 28/66/10 29/66/10 
f 30/66/10 31/66/10 32/66/10 33/66/10 
f 34/66/10 35/66/10 36/66/10 37/66/10 
f 38/66/10 39/66/10 40/66/10 41/66/10 
f 42/66/10 43/66/10 44/66/10 45/66/10 
f 46/66/10 47/66/10 48/66/10 49/66/10 
f 50/66/10 51/66/10 52/66/10 53/66/10 
f 54/66/10 55/66/10 56/66/10 57/66/10 
f 58/66/10 59/66/10 60/66/10 61/66/10 
f 62/66/10 63/66/10 64/66/10 65/66/10 
f 66/66/10 67/66/10 68/66/10 69/66/10 
f 70/66/10 71/66/10 72/66/10 73/66/10 
f 74/66/10 75/66/10 76/66/10 77/66/10 
f 78/66/10 79/66/10 80/66/10 81/66/10 
f 82/66/10 83/66/10 84/66/10 85/66/10 
f 86/66/10 87/66/10 88/66/10 89/66/10 
f 90/66/10 91/66/10 92/66/10 93/66/10 
f 94/66/10 95/66/10 96/66/10 97/66/10 
f 98/66/10 99/66/10 100/66/10 101/66/10 
f 102/66/10 103/66/10 104/66/10 105/66/10 
f 106/66/10 107/66/10 108/66/10 109/66/10 
# 21 polygons

